{
    "asset": {
        "version": "2.0",
        "generator": "Open Asset Import Library (assimp v5.0.5eb040c7)"
    },
    "accessors": [
        {
            "bufferView": 0,
            "byteOffset": 0,
            "componentType": 5126,
            "count": 798,
            "type": "VEC3",
            "max": [
                4.984572887420654,
                2.4826149940490724,
                3.1050548553466799
            ],
            "min": [
                -5.125616073608398,
                -2.917951822280884,
                -2.621458053588867
            ]
        },
        {
            "bufferView": 1,
            "byteOffset": 0,
            "componentType": 5126,
            "count": 798,
            "type": "VEC3",
            "max": [
                0.9031051993370056,
                0.9822608828544617,
                0.9961419701576233
            ],
            "min": [
                -0.9031040668487549,
                -0.9791007041931152,
                -0.9961420893669128
            ]
        },
        {
            "bufferView": 2,
            "byteOffset": 0,
            "componentType": 5125,
            "count": 798,
            "type": "SCALAR",
            "max": [
                797
            ],
            "min": [
                0
            ]
        }
    ],
    "buffers": [
        {
            "byteLength": 22344,
            "uri": "result.bin"
        }
    ],
    "bufferViews": [
        {
            "buffer": 0,
            "byteOffset": 0,
            "byteLength": 9576,
            "target": 34962
        },
        {
            "buffer": 0,
            "byteOffset": 9576,
            "byteLength": 9576,
            "target": 34962
        },
        {
            "buffer": 0,
            "byteOffset": 19152,
            "byteLength": 3192,
            "target": 34963
        }
    ],
    "materials": [
        {
            "name": "DefaultMaterial",
            "pbrMetallicRoughness": {
                "baseColorFactor": [
                    0.800000011920929,
                    0.800000011920929,
                    0.800000011920929,
                    1.0
                ],
                "metallicFactor": 0.0
            }
        }
    ],
    "meshes": [
        {
            "name": "Icosphere.043",
            "primitives": [
                {
                    "mode": 4,
                    "material": 0,
                    "indices": 2,
                    "attributes": {
                        "POSITION": 0,
                        "NORMAL": 1
                    }
                }
            ]
        }
    ],
    "nodes": [
        {
            "name": "RootNode",
            "children": [
                1
            ]
        },
        {
            "name": "Cloud_2",
            "matrix": [
                40.964908599853519,
                0.0,
                0.0,
                0.0,
                0.0,
                -0.000006674030828435207,
                -40.964908599853519,
                0.0,
                0.0,
                40.964908599853519,
                -0.000006674030828435207,
                0.0,
                0.0,
                0.0,
                0.0,
                1.0
            ],
            "mesh": 0
        }
    ],
    "scenes": [
        {
            "nodes": [
                0
            ]
        }
    ],
    "scene": 0
}