{
    "asset": {
        "version": "2.0",
        "generator": "Open Asset Import Library (assimp v5.0.5eb040c7)"
    },
    "accessors": [
        {
            "bufferView": 0,
            "byteOffset": 0,
            "componentType": 5126,
            "count": 498,
            "type": "VEC3",
            "max": [
                3.999340772628784,
                2.488313913345337,
                2.7530670166015627
            ],
            "min": [
                -4.208865642547607,
                -2.2583765983581545,
                -2.2809600830078127
            ]
        },
        {
            "bufferView": 1,
            "byteOffset": 0,
            "componentType": 5126,
            "count": 498,
            "type": "VEC3",
            "max": [
                0.983566403388977,
                0.97910076379776,
                0.9758943319320679
            ],
            "min": [
                -0.9892106056213379,
                -0.973508358001709,
                -0.9961419105529785
            ]
        },
        {
            "bufferView": 2,
            "byteOffset": 0,
            "componentType": 5125,
            "count": 498,
            "type": "SCALAR",
            "max": [
                497
            ],
            "min": [
                0
            ]
        }
    ],
    "buffers": [
        {
            "byteLength": 13944,
            "uri": "result.bin"
        }
    ],
    "bufferViews": [
        {
            "buffer": 0,
            "byteOffset": 0,
            "byteLength": 5976,
            "target": 34962
        },
        {
            "buffer": 0,
            "byteOffset": 5976,
            "byteLength": 5976,
            "target": 34962
        },
        {
            "buffer": 0,
            "byteOffset": 11952,
            "byteLength": 1992,
            "target": 34963
        }
    ],
    "materials": [
        {
            "name": "DefaultMaterial",
            "pbrMetallicRoughness": {
                "baseColorFactor": [
                    0.800000011920929,
                    0.800000011920929,
                    0.800000011920929,
                    1.0
                ],
                "metallicFactor": 0.0
            }
        }
    ],
    "meshes": [
        {
            "name": "Icosphere.045",
            "primitives": [
                {
                    "mode": 4,
                    "material": 0,
                    "indices": 2,
                    "attributes": {
                        "POSITION": 0,
                        "NORMAL": 1
                    }
                }
            ]
        }
    ],
    "nodes": [
        {
            "name": "RootNode",
            "children": [
                1
            ]
        },
        {
            "name": "Cloud_4",
            "matrix": [
                46.0718994140625,
                0.0,
                0.0,
                0.0,
                0.0,
                -0.000007506065230700187,
                -46.0718994140625,
                0.0,
                0.0,
                46.0718994140625,
                -0.000007506065230700187,
                0.0,
                0.0,
                0.0,
                0.0,
                1.0
            ],
            "mesh": 0
        }
    ],
    "scenes": [
        {
            "nodes": [
                0
            ]
        }
    ],
    "scene": 0
}